inDegrees=yes
name=ik_appendData_table_pitch
DataType=double
version=3
OpenSimVersion=4.5
endheader
time	pelvis_tilt	pelvis_list	pelvis_rotation	pelvis_tx	pelvis_ty	pelvis_tz	hip_flexion_r	hip_adduction_r	hip_rotation_r	knee_angle_r	knee_angle_r_beta	ankle_angle_r	subtalar_angle_r	mtp_angle_r	hip_flexion_l	hip_adduction_l	hip_rotation_l	knee_angle_l	knee_angle_l_beta	ankle_angle_l	subtalar_angle_l	mtp_angle_l	lumbar_extension	lumbar_bending	lumbar_rotation	arm_flex_r	arm_add_r	arm_rot_r	elbow_flex_r	pro_sup_r	wrist_flex_r	wrist_dev_r	arm_flex_l	arm_add_l	arm_rot_l	elbow_flex_l	pro_sup_l	wrist_flex_l	wrist_dev_l
50	-3.009992563627144	89.91095399239937	-3.926073777023514	0	0.9399999999999999	0	44.68685191566259	-10.02351723851797	0	59.95723081749961	1.04645108814358	-5.002676564562538	0	0	44.68685191566259	-10.02351723851797	0	59.95723081749961	1.04645108814358	-5.002676564562538	0	0	1.14758552307077	0.1302779133416059	5.818822176386303	0	-12.70828410992688	0	75.89694771089904	44.96070960899753	0	0	11.53804587605891	-0.4116546988068747	-0.04631176720852837	0.009658454445906458	44.96070960899753	0	0
51	-2.832250373026876	89.91072626705237	-4.117644664651047	0	0.9399999999999999	0	44.69159174253851	-10.02242219882679	0	59.95778356836751	1.046460735466168	-5.002519019303157	0	0	44.69159174253851	-10.02242219882679	0	59.95778356836751	1.046460735466168	-5.002519019303157	0	0	1.146253330932219	0.1362865662312455	5.822694422040396	0	-12.7271540616069	0	75.88337282558346	44.9621948839401	0	0	15.03304504472311	0.05386052882589664	-0.1740620027820766	0.007523006966008187	44.9621948839401	0	0
52	-2.617423745341148	89.91075581480546	-4.328404110720597	0	0.9399999999999999	0	44.69717903687501	-10.02120209101694	0	59.958441647036	1.04647222110567	-5.00234686644647	0	0	44.69717903687501	-10.02120209101694	0	59.958441647036	1.04647222110567	-5.00234686644647	0	0	1.145571188824612	0.1352495027071156	5.81641245504315	0	-12.74975016381924	0	75.86737092644849	44.96387392286632	0	0	19.17841928699743	-0.636702925179512	-0.08842387169489757	0.006038257035133104	44.96387392286632	0	0
53	-2.47662941288531	89.91105123136495	-4.474617388957816	0	0.9399999999999999	0	44.70155160136031	-10.02025457751509	0	59.95895671118614	1.046481210670949	-5.002213864216079	0	0	44.70155160136031	-10.02025457751509	0	59.95895671118614	1.046481210670949	-5.002213864216079	0	0	1.158114190623347	0.1346976315552373	5.817858615197273	0	-12.76743716712157	0	75.85484799377494	44.9651817963236	0	0	22.7639227070846	-0.8834909514486592	-0.6607984211980493	0.005139202161924287	44.9651817963236	0	0
54	-2.390912523068967	89.9110805871553	-4.536940549751328	0	0.9399999999999999	0	44.70577297533919	-10.01935916941287	0	59.95944846503525	1.046489793394725	-5.002089689857914	0	0	44.70577297533919	-10.01935916941287	0	59.95944846503525	1.046489793394725	-5.002089689857914	0	0	1.159224844689551	0.1340671294400073	5.808234775387859	0	-12.78449342287678	0	75.84275809124317	44.96642746463331	0	0	26.08548500123268	-0.8217796400579445	-0.07659923430161565	0.004507633441112248	44.96642746463331	0	0
55	-2.173963580089689	89.91048108815173	-4.775321704688088	0	0.9399999999999999	0	44.71050327966815	-10.01841655695227	0	59.95999861974893	1.046499395405874	-5.001962108999612	0	0	44.71050327966815	-10.01841655695227	0	59.95999861974893	1.046499395405874	-5.001962108999612	0	0	1.141414723541629	0.1379215140347283	5.82228028992943	0	-12.8038353626877	0	75.82921073080671	44.96776201700339	0	0	29.15485055898212	-2.042923306336305	0.2535286098026474	0.004093245726425964	44.96776201700339	0	0
56	-2.021427366221224	89.91162266469674	-4.927169107594742	0	0.9399999999999999	0	44.71517917350888	-10.01751345687782	0	59.96054812432918	1.046508986070054	-5.001841114453367	0	0	44.71517917350888	-10.01751345687782	0	59.96054812432918	1.046508986070054	-5.001841114453367	0	0	1.130516658124374	0.1388724474549179	5.808329254432333	0	-12.82316110256193	0	75.81581926075242	44.96905038417145	0	0	32.78938387155914	-2.724127092759326	0.4717057638073987	0.003667794375343564	44.96905038417145	0	0
57	-1.884541471527023	89.90995273790556	-5.068900406166426	0	0.9399999999999999	0	44.71889754507551	-10.0167937065788	0	59.96098393148152	1.046516592339767	-5.001744882048958	0	0	44.71889754507551	-10.0167937065788	0	59.96098393148152	1.046516592339767	-5.001744882048958	0	0	1.15308595008303	0.138529310471695	5.814292625352119	0	-12.83847888902046	0	75.80517006455963	44.97007787674065	0	0	36.09854878432354	-3.028473913436952	-0.03820820854744293	0.003338834574109878	44.97007787674065	0	0
58	-1.669392664071546	89.91049408672221	-5.295356774983421	0	0.9399999999999999	0	44.72209662291961	-10.01617401781376	0	59.96134603909247	1.046522912309824	-5.001662801659044	0	0	44.72209662291961	-10.01617401781376	0	59.96134603909247	1.046522912309824	-5.001662801659044	0	0	1.14838148458731	0.1308231980551042	5.827128901443483	0	-12.85143794475274	0	75.79600807236568	44.97096676884865	0	0	38.58563196361516	-3.886086766105123	-0.3231859212931814	0.003140562917451901	44.97096676884865	0	0
59	-1.645919966806819	89.91046408873791	-5.310581407005554	0	0.9399999999999999	0	44.72416690174248	-10.01574386934306	0	59.96157034083595	1.046526827113766	-5.001605148024464	0	0	44.72416690174248	-10.01574386934306	0	59.96157034083595	1.046526827113766	-5.001605148024464	0	0	1.142452864881174	0.1382421671406868	5.822242090871582	0	-12.85949982586351	0	75.79007883292165	44.97157653640835	0	0	40.98679937592849	-3.643362514561937	-1.065448993491288	0.0029496760641434	44.97157653640835	0	0
60	-1.585108939906391	89.91019380267043	-5.370847381352116	0	0.9399999999999999	0	44.72630718054424	-10.01531732271408	0	59.96181023954604	1.046531014136128	-5.001548494810811	0	0	44.72630718054424	-10.01531732271408	0	59.96181023954604	1.046531014136128	-5.001548494810811	0	0	1.141630905273676	0.1392448463860389	5.826709920065314	0	-12.86803459515581	0	75.78394915515354	44.97218589021848	0	0	43.35366982463665	-3.685825346718213	-2.399500084938101	0.002783062046777349	44.97218589021848	0	0
61	-1.443894303694493	89.91038578068647	-5.505698811623933	0	0.9399999999999999	0	44.72900966128938	-10.01483656988217	0	59.96211234425566	1.046536286857997	-5.001487135133642	0	0	44.72900966128938	-10.01483656988217	0	59.96211234425566	1.046536286857997	-5.001487135133642	0	0	1.138793963470134	0.1385487017467491	5.825141244472809	0	-12.87909448557196	0	75.77620946327808	44.97289356342124	0	0	45.77307405048925	-4.373427596964155	-2.091100553362975	0.002647157313123134	44.97289356342124	0	0
62	-1.434076716797486	89.90970874897432	-5.514129159243908	0	0.9399999999999999	0	44.72909590410283	-10.01482012603131	0	59.96212186831928	1.046536453084265	-5.001484986236099	0	0	44.72909590410283	-10.01482012603131	0	59.96212186831928	1.046536453084265	-5.001484986236099	0	0	1.149257407051361	0.1386072351793557	5.819806236984966	0	-12.87944081653662	0	75.77596246858427	44.9729173419044	0	0	47.38347762321362	-4.472847211307874	-2.060079681402817	0.002558223391230273	44.9729173419044	0	0
63	-1.431930887684299	89.9104152219996	-5.519611690763481	0	0.9399999999999999	0	44.72915581561616	-10.01480866459441	0	59.96212846303506	1.046536568183769	-5.001483487759824	0	0	44.72915581561616	-10.01480866459441	0	59.96212846303506	1.046536568183769	-5.001483487759824	0	0	1.148212708138745	0.1405742594871159	5.819701854636275	0	-12.87968087045081	0	75.7757908851958	44.97293390743165	0	0	47.38588833433916	-4.469112602348265	-2.060517794461227	0.002558049687019288	44.97293390743165	0	0
64	-1.427699357326068	89.91038396654808	-5.523086584131566	0	0.9399999999999999	0	44.72921659602801	-10.01479704245678	0	59.9621351533027	1.046536684950967	-5.001481968608952	0	0	44.72921659602801	-10.01479704245678	0	59.9621351533027	1.046536684950967	-5.001481968608952	0	0	1.148028577839199	0.1404291097124586	5.820043143195726	0	-12.87992442155653	0	75.77561681333658	44.9729507077121	0	0	47.38594466690347	-4.469185853931002	-2.060400227328197	0.002558076797985407	44.9729507077121	0	0
65	-1.423646323943323	89.91043522171947	-5.52592791023084	0	0.9399999999999999	0	44.7292804206236	-10.01478485723811	0	59.96214218575056	1.046536807690337	-5.001480376471312	0	0	44.7292804206236	-10.01478485723811	0	59.96214218575056	1.046536807690337	-5.001480376471312	0	0	1.147742680174911	0.1393428823514958	5.811279094544139	0	-12.88018037332314	0	75.77543402314112	44.9729683274905	0	0	47.42665969511576	-4.203025581753933	-1.499416102798781	0.002555782323245125	44.9729683274905	0	0
66	-1.422598309129117	89.91032284865054	-5.530688299282518	0	0.9399999999999999	0	44.72933448401641	-10.01477455009069	0	59.96214814624781	1.046536911720639	-5.001479030315394	0	0	44.72933448401641	-10.01477455009069	0	59.96214814624781	1.046536911720639	-5.001479030315394	0	0	1.144920459349777	0.1429391382805121	5.819296395928222	0	-12.88039729073195	0	75.77527918853026	44.97298323655355	0	0	47.019628011072	-4.152414292049052	-1.497813780241223	0.002577061463822086	44.97298323655355	0	0
67	-1.519105783387229	89.91057549397641	-5.438126821631591	0	0.9399999999999999	0	44.73310910689737	-10.01409933311902	0	59.96258281638198	1.04654449814564	-5.001392623442636	0	0	44.73310910689737	-10.01409933311902	0	59.96258281638198	1.04654449814564	-5.001392623442636	0	0	1.150978489850686	0.1395882465464396	5.828046993176825	0	-12.89595100129412	0	75.76446896155936	44.97397471681342	0	0	45.09831869371958	-4.640628208323896	-1.301080881280866	0.00269443991623839	44.97397471681342	0	0
68	-1.400608950481795	89.91020971806806	-5.556715301223799	0	0.9399999999999999	0	44.74229300335899	-10.01273234506649	0	59.96369939012632	1.04656398603382	-5.001227009185319	0	0	44.74229300335899	-10.01273234506649	0	59.96369939012632	1.04656398603382	-5.001227009185319	0	0	1.15565768767485	0.1439870106160816	5.826675727775607	0	-12.93622263664701	0	75.73816755848098	44.97607051994096	0	0	38.95925748081996	-2.764691175221814	-0.7693202914575636	0.003087612517715932	44.97607051994096	0	0
69	-1.634424218414217	89.91035127925244	-5.322444396402402	0	0.9399999999999999	0	44.75010133244732	-10.0116844196978	0	59.96465490548466	1.046580662922876	-5.001104103830389	0	0	44.75010133244732	-10.0116844196978	0	59.96465490548466	1.046580662922876	-5.001104103830389	0	0	1.152786157127954	0.1429060564441055	5.825650094535746	0	-12.97137491209837	0	75.71580581633579	44.97771889274576	0	0	33.24362558918563	-2.354476398985182	-0.2723922665896932	0.003603782093925505	44.97771889274576	0	0
